<mxfile host="app.diagrams.net" modified="2023-03-31T16:01:13.413Z" agent="Mozilla/5.0 (Windows NT 10.0; Win64; x64) AppleWebKit/537.36 (KHTML, like Gecko) Chrome/111.0.0.0 Safari/537.36" etag="suIEtf8eRYCp98STieBY" version="21.1.2" type="device">
  <diagram id="C5RBs43oDa-KdzZeNtuy" name="Page-1">
    <mxGraphModel dx="875" dy="484" grid="1" gridSize="10" guides="1" tooltips="1" connect="1" arrows="1" fold="1" page="1" pageScale="1" pageWidth="827" pageHeight="1169" math="0" shadow="0">
      <root>
        <mxCell id="WIyWlLk6GJQsqaUBKTNV-0" />
        <mxCell id="WIyWlLk6GJQsqaUBKTNV-1" parent="WIyWlLk6GJQsqaUBKTNV-0" />
        <mxCell id="ZVex4WJ4FfvMPkekX9bZ-0" value="WaterTower" style="swimlane;fontStyle=1;align=center;verticalAlign=top;childLayout=stackLayout;horizontal=1;startSize=26;horizontalStack=0;resizeParent=1;resizeParentMax=0;resizeLast=0;collapsible=1;marginBottom=0;whiteSpace=wrap;html=1;" parent="WIyWlLk6GJQsqaUBKTNV-1" vertex="1">
          <mxGeometry x="229" y="80" width="210" height="190" as="geometry" />
        </mxCell>
        <mxCell id="ZVex4WJ4FfvMPkekX9bZ-1" value="- currentAmount: double&lt;br&gt;- maxAmount: double&lt;br&gt;- pump: Pump" style="text;strokeColor=none;fillColor=none;align=left;verticalAlign=top;spacingLeft=4;spacingRight=4;overflow=hidden;rotatable=0;points=[[0,0.5],[1,0.5]];portConstraint=eastwest;whiteSpace=wrap;html=1;" parent="ZVex4WJ4FfvMPkekX9bZ-0" vertex="1">
          <mxGeometry y="26" width="210" height="54" as="geometry" />
        </mxCell>
        <mxCell id="ZVex4WJ4FfvMPkekX9bZ-2" value="" style="line;strokeWidth=1;fillColor=none;align=left;verticalAlign=middle;spacingTop=-1;spacingLeft=3;spacingRight=3;rotatable=0;labelPosition=right;points=[];portConstraint=eastwest;strokeColor=inherit;" parent="ZVex4WJ4FfvMPkekX9bZ-0" vertex="1">
          <mxGeometry y="80" width="210" height="8" as="geometry" />
        </mxCell>
        <mxCell id="ZVex4WJ4FfvMPkekX9bZ-3" value="+ IncreaseAmount()&lt;br&gt;+ DecreaseAmount(double amount)&lt;br&gt;+ IsFull(): bool&lt;br&gt;+ IsEmpty(): bool&lt;br&gt;+&amp;nbsp;InstallPump(Pump pump)&lt;br&gt;+ RemovePump()" style="text;strokeColor=none;fillColor=none;align=left;verticalAlign=top;spacingLeft=4;spacingRight=4;overflow=hidden;rotatable=0;points=[[0,0.5],[1,0.5]];portConstraint=eastwest;whiteSpace=wrap;html=1;" parent="ZVex4WJ4FfvMPkekX9bZ-0" vertex="1">
          <mxGeometry y="88" width="210" height="102" as="geometry" />
        </mxCell>
        <mxCell id="ZVex4WJ4FfvMPkekX9bZ-4" value="Pump" style="swimlane;fontStyle=1;align=center;verticalAlign=top;childLayout=stackLayout;horizontal=1;startSize=26;horizontalStack=0;resizeParent=1;resizeParentMax=0;resizeLast=0;collapsible=1;marginBottom=0;whiteSpace=wrap;html=1;" parent="WIyWlLk6GJQsqaUBKTNV-1" vertex="1">
          <mxGeometry x="585" y="80" width="160" height="120" as="geometry" />
        </mxCell>
        <mxCell id="ZVex4WJ4FfvMPkekX9bZ-5" value="- power: double&lt;br&gt;- isOn: bool" style="text;strokeColor=none;fillColor=none;align=left;verticalAlign=top;spacingLeft=4;spacingRight=4;overflow=hidden;rotatable=0;points=[[0,0.5],[1,0.5]];portConstraint=eastwest;whiteSpace=wrap;html=1;glass=0;" parent="ZVex4WJ4FfvMPkekX9bZ-4" vertex="1">
          <mxGeometry y="26" width="160" height="34" as="geometry" />
        </mxCell>
        <mxCell id="ZVex4WJ4FfvMPkekX9bZ-6" value="" style="line;strokeWidth=1;fillColor=none;align=left;verticalAlign=middle;spacingTop=-1;spacingLeft=3;spacingRight=3;rotatable=0;labelPosition=right;points=[];portConstraint=eastwest;strokeColor=inherit;" parent="ZVex4WJ4FfvMPkekX9bZ-4" vertex="1">
          <mxGeometry y="60" width="160" height="20" as="geometry" />
        </mxCell>
        <mxCell id="ZVex4WJ4FfvMPkekX9bZ-7" value="+ On()&lt;br&gt;+ Off()" style="text;strokeColor=none;fillColor=none;align=left;verticalAlign=top;spacingLeft=4;spacingRight=4;overflow=hidden;rotatable=0;points=[[0,0.5],[1,0.5]];portConstraint=eastwest;whiteSpace=wrap;html=1;" parent="ZVex4WJ4FfvMPkekX9bZ-4" vertex="1">
          <mxGeometry y="80" width="160" height="40" as="geometry" />
        </mxCell>
        <mxCell id="ZVex4WJ4FfvMPkekX9bZ-8" value="User" style="swimlane;fontStyle=1;align=center;verticalAlign=top;childLayout=stackLayout;horizontal=1;startSize=26;horizontalStack=0;resizeParent=1;resizeParentMax=0;resizeLast=0;collapsible=1;marginBottom=0;whiteSpace=wrap;html=1;" parent="WIyWlLk6GJQsqaUBKTNV-1" vertex="1">
          <mxGeometry x="254" y="430" width="160" height="114" as="geometry" />
        </mxCell>
        <mxCell id="ZVex4WJ4FfvMPkekX9bZ-9" value="- id: long&lt;br&gt;- consumption: double&lt;br&gt;- tap: WaterSystem" style="text;strokeColor=none;fillColor=none;align=left;verticalAlign=top;spacingLeft=4;spacingRight=4;overflow=hidden;rotatable=0;points=[[0,0.5],[1,0.5]];portConstraint=eastwest;whiteSpace=wrap;html=1;" parent="ZVex4WJ4FfvMPkekX9bZ-8" vertex="1">
          <mxGeometry y="26" width="160" height="54" as="geometry" />
        </mxCell>
        <mxCell id="ZVex4WJ4FfvMPkekX9bZ-10" value="" style="line;strokeWidth=1;fillColor=none;align=left;verticalAlign=middle;spacingTop=-1;spacingLeft=3;spacingRight=3;rotatable=0;labelPosition=right;points=[];portConstraint=eastwest;strokeColor=inherit;" parent="ZVex4WJ4FfvMPkekX9bZ-8" vertex="1">
          <mxGeometry y="80" width="160" height="8" as="geometry" />
        </mxCell>
        <mxCell id="ZVex4WJ4FfvMPkekX9bZ-11" value="+ UseWater()" style="text;strokeColor=none;fillColor=none;align=left;verticalAlign=top;spacingLeft=4;spacingRight=4;overflow=hidden;rotatable=0;points=[[0,0.5],[1,0.5]];portConstraint=eastwest;whiteSpace=wrap;html=1;" parent="ZVex4WJ4FfvMPkekX9bZ-8" vertex="1">
          <mxGeometry y="88" width="160" height="26" as="geometry" />
        </mxCell>
        <mxCell id="ZVex4WJ4FfvMPkekX9bZ-12" value="Simulator" style="swimlane;fontStyle=1;align=center;verticalAlign=top;childLayout=stackLayout;horizontal=1;startSize=26;horizontalStack=0;resizeParent=1;resizeParentMax=0;resizeLast=0;collapsible=1;marginBottom=0;whiteSpace=wrap;html=1;" parent="WIyWlLk6GJQsqaUBKTNV-1" vertex="1">
          <mxGeometry x="585" y="360" width="160" height="94" as="geometry" />
        </mxCell>
        <mxCell id="ZVex4WJ4FfvMPkekX9bZ-13" value="- tower: WaterTower&lt;br&gt;- users: List&amp;lt;User&amp;gt;" style="text;strokeColor=none;fillColor=none;align=left;verticalAlign=top;spacingLeft=4;spacingRight=4;overflow=hidden;rotatable=0;points=[[0,0.5],[1,0.5]];portConstraint=eastwest;whiteSpace=wrap;html=1;" parent="ZVex4WJ4FfvMPkekX9bZ-12" vertex="1">
          <mxGeometry y="26" width="160" height="34" as="geometry" />
        </mxCell>
        <mxCell id="ZVex4WJ4FfvMPkekX9bZ-14" value="" style="line;strokeWidth=1;fillColor=none;align=left;verticalAlign=middle;spacingTop=-1;spacingLeft=3;spacingRight=3;rotatable=0;labelPosition=right;points=[];portConstraint=eastwest;strokeColor=inherit;" parent="ZVex4WJ4FfvMPkekX9bZ-12" vertex="1">
          <mxGeometry y="60" width="160" height="8" as="geometry" />
        </mxCell>
        <mxCell id="ZVex4WJ4FfvMPkekX9bZ-15" value="+ Simulate()" style="text;strokeColor=none;fillColor=none;align=left;verticalAlign=top;spacingLeft=4;spacingRight=4;overflow=hidden;rotatable=0;points=[[0,0.5],[1,0.5]];portConstraint=eastwest;whiteSpace=wrap;html=1;" parent="ZVex4WJ4FfvMPkekX9bZ-12" vertex="1">
          <mxGeometry y="68" width="160" height="26" as="geometry" />
        </mxCell>
        <mxCell id="ZVex4WJ4FfvMPkekX9bZ-23" value="1" style="endArrow=open;html=1;endSize=12;startArrow=diamondThin;startSize=14;startFill=0;edgeStyle=orthogonalEdgeStyle;align=left;verticalAlign=bottom;rounded=0;exitX=1;exitY=0.5;exitDx=0;exitDy=0;entryX=0;entryY=0.5;entryDx=0;entryDy=0;" parent="WIyWlLk6GJQsqaUBKTNV-1" source="ZVex4WJ4FfvMPkekX9bZ-1" target="ZVex4WJ4FfvMPkekX9bZ-5" edge="1">
          <mxGeometry x="0.7647" y="9" relative="1" as="geometry">
            <mxPoint x="425" y="123" as="sourcePoint" />
            <mxPoint x="585" y="123" as="targetPoint" />
            <mxPoint as="offset" />
          </mxGeometry>
        </mxCell>
        <mxCell id="ZVex4WJ4FfvMPkekX9bZ-24" value="0..*" style="edgeLabel;html=1;align=center;verticalAlign=middle;resizable=0;points=[];" parent="ZVex4WJ4FfvMPkekX9bZ-23" vertex="1" connectable="0">
          <mxGeometry x="-0.8" y="-1" relative="1" as="geometry">
            <mxPoint x="3" y="-20" as="offset" />
          </mxGeometry>
        </mxCell>
        <mxCell id="-jOWPB6QB5DNqPApwjeA-4" value="Uses" style="edgeLabel;html=1;align=center;verticalAlign=middle;resizable=0;points=[];" vertex="1" connectable="0" parent="ZVex4WJ4FfvMPkekX9bZ-23">
          <mxGeometry x="0.701" relative="1" as="geometry">
            <mxPoint x="-14" y="12" as="offset" />
          </mxGeometry>
        </mxCell>
        <mxCell id="-jOWPB6QB5DNqPApwjeA-5" value="" style="endArrow=open;endFill=1;endSize=12;html=1;rounded=0;exitX=0;exitY=0.5;exitDx=0;exitDy=0;entryX=1;entryY=0.5;entryDx=0;entryDy=0;" edge="1" parent="WIyWlLk6GJQsqaUBKTNV-1" source="ZVex4WJ4FfvMPkekX9bZ-13" target="ZVex4WJ4FfvMPkekX9bZ-9">
          <mxGeometry width="160" relative="1" as="geometry">
            <mxPoint x="465" y="270" as="sourcePoint" />
            <mxPoint x="625" y="270" as="targetPoint" />
          </mxGeometry>
        </mxCell>
        <mxCell id="-jOWPB6QB5DNqPApwjeA-6" value="0..*" style="edgeLabel;html=1;align=center;verticalAlign=middle;resizable=0;points=[];" vertex="1" connectable="0" parent="-jOWPB6QB5DNqPApwjeA-5">
          <mxGeometry x="0.6774" relative="1" as="geometry">
            <mxPoint x="-2" y="-20" as="offset" />
          </mxGeometry>
        </mxCell>
        <mxCell id="-jOWPB6QB5DNqPApwjeA-7" value="Knows about" style="edgeLabel;html=1;align=center;verticalAlign=middle;resizable=0;points=[];" vertex="1" connectable="0" parent="-jOWPB6QB5DNqPApwjeA-5">
          <mxGeometry x="0.2949" y="-2" relative="1" as="geometry">
            <mxPoint x="30" y="-15" as="offset" />
          </mxGeometry>
        </mxCell>
        <mxCell id="-jOWPB6QB5DNqPApwjeA-10" value="1" style="endArrow=open;html=1;endSize=12;startArrow=diamondThin;startSize=14;startFill=1;edgeStyle=orthogonalEdgeStyle;align=left;verticalAlign=bottom;rounded=0;exitX=0.908;exitY=1.006;exitDx=0;exitDy=0;exitPerimeter=0;entryX=0.188;entryY=0;entryDx=0;entryDy=0;entryPerimeter=0;" edge="1" parent="WIyWlLk6GJQsqaUBKTNV-1" source="ZVex4WJ4FfvMPkekX9bZ-3" target="ZVex4WJ4FfvMPkekX9bZ-12">
          <mxGeometry x="-0.791" y="14" relative="1" as="geometry">
            <mxPoint x="465" y="270" as="sourcePoint" />
            <mxPoint x="625" y="270" as="targetPoint" />
            <mxPoint as="offset" />
          </mxGeometry>
        </mxCell>
        <mxCell id="-jOWPB6QB5DNqPApwjeA-11" value="1" style="edgeLabel;html=1;align=center;verticalAlign=middle;resizable=0;points=[];" vertex="1" connectable="0" parent="-jOWPB6QB5DNqPApwjeA-10">
          <mxGeometry x="0.7431" relative="1" as="geometry">
            <mxPoint x="20" y="17" as="offset" />
          </mxGeometry>
        </mxCell>
        <mxCell id="-jOWPB6QB5DNqPApwjeA-12" value="WaterSystem" style="swimlane;fontStyle=1;align=center;verticalAlign=top;childLayout=stackLayout;horizontal=1;startSize=26;horizontalStack=0;resizeParent=1;resizeParentMax=0;resizeLast=0;collapsible=1;marginBottom=0;whiteSpace=wrap;html=1;" vertex="1" parent="WIyWlLk6GJQsqaUBKTNV-1">
          <mxGeometry x="20" y="310" width="250" height="94" as="geometry" />
        </mxCell>
        <mxCell id="-jOWPB6QB5DNqPApwjeA-13" value="- user: User&lt;br&gt;- tower: WaterTower" style="text;strokeColor=none;fillColor=none;align=left;verticalAlign=top;spacingLeft=4;spacingRight=4;overflow=hidden;rotatable=0;points=[[0,0.5],[1,0.5]];portConstraint=eastwest;whiteSpace=wrap;html=1;" vertex="1" parent="-jOWPB6QB5DNqPApwjeA-12">
          <mxGeometry y="26" width="250" height="34" as="geometry" />
        </mxCell>
        <mxCell id="-jOWPB6QB5DNqPApwjeA-14" value="" style="line;strokeWidth=1;fillColor=none;align=left;verticalAlign=middle;spacingTop=-1;spacingLeft=3;spacingRight=3;rotatable=0;labelPosition=right;points=[];portConstraint=eastwest;strokeColor=inherit;" vertex="1" parent="-jOWPB6QB5DNqPApwjeA-12">
          <mxGeometry y="60" width="250" height="8" as="geometry" />
        </mxCell>
        <mxCell id="-jOWPB6QB5DNqPApwjeA-15" value="+ RequestWaterFromTower(double amount)" style="text;strokeColor=none;fillColor=none;align=left;verticalAlign=top;spacingLeft=4;spacingRight=4;overflow=hidden;rotatable=0;points=[[0,0.5],[1,0.5]];portConstraint=eastwest;whiteSpace=wrap;html=1;" vertex="1" parent="-jOWPB6QB5DNqPApwjeA-12">
          <mxGeometry y="68" width="250" height="26" as="geometry" />
        </mxCell>
        <mxCell id="-jOWPB6QB5DNqPApwjeA-16" value="Uses" style="endArrow=open;endSize=12;dashed=1;html=1;rounded=0;exitX=0;exitY=0.5;exitDx=0;exitDy=0;entryX=0.471;entryY=1.013;entryDx=0;entryDy=0;entryPerimeter=0;" edge="1" parent="WIyWlLk6GJQsqaUBKTNV-1" source="ZVex4WJ4FfvMPkekX9bZ-9" target="-jOWPB6QB5DNqPApwjeA-15">
          <mxGeometry width="160" relative="1" as="geometry">
            <mxPoint x="320" y="390" as="sourcePoint" />
            <mxPoint x="120" y="430" as="targetPoint" />
          </mxGeometry>
        </mxCell>
        <mxCell id="-jOWPB6QB5DNqPApwjeA-17" value="1" style="edgeLabel;html=1;align=center;verticalAlign=middle;resizable=0;points=[];" vertex="1" connectable="0" parent="-jOWPB6QB5DNqPApwjeA-16">
          <mxGeometry x="0.685" y="-1" relative="1" as="geometry">
            <mxPoint x="-7" y="14" as="offset" />
          </mxGeometry>
        </mxCell>
        <mxCell id="-jOWPB6QB5DNqPApwjeA-18" value="" style="endArrow=open;endFill=1;endSize=12;html=1;rounded=0;exitX=-0.011;exitY=0.772;exitDx=0;exitDy=0;exitPerimeter=0;entryX=0.457;entryY=-0.032;entryDx=0;entryDy=0;entryPerimeter=0;" edge="1" parent="WIyWlLk6GJQsqaUBKTNV-1" source="ZVex4WJ4FfvMPkekX9bZ-1" target="-jOWPB6QB5DNqPApwjeA-12">
          <mxGeometry width="160" relative="1" as="geometry">
            <mxPoint x="320" y="300" as="sourcePoint" />
            <mxPoint x="480" y="300" as="targetPoint" />
          </mxGeometry>
        </mxCell>
        <mxCell id="-jOWPB6QB5DNqPApwjeA-19" value="Gives water" style="edgeLabel;html=1;align=center;verticalAlign=middle;resizable=0;points=[];" vertex="1" connectable="0" parent="-jOWPB6QB5DNqPApwjeA-18">
          <mxGeometry x="0.1956" y="-1" relative="1" as="geometry">
            <mxPoint x="6" y="-14" as="offset" />
          </mxGeometry>
        </mxCell>
        <mxCell id="-jOWPB6QB5DNqPApwjeA-20" value="0..*" style="edgeLabel;html=1;align=center;verticalAlign=middle;resizable=0;points=[];" vertex="1" connectable="0" parent="-jOWPB6QB5DNqPApwjeA-18">
          <mxGeometry x="0.823" y="1" relative="1" as="geometry">
            <mxPoint x="-16" y="-17" as="offset" />
          </mxGeometry>
        </mxCell>
      </root>
    </mxGraphModel>
  </diagram>
</mxfile>
